{
  "accessors": [
    {
      "bufferView": 2,
      "componentType": 5126,
      "count": 9907,
      "max": [
        8.461726188659668,
        14.430291175842285,
        8.3322257995605469
      ],
      "min": [
        -8.4617271423339844,
        -17.947383880615234,
        -0.021784000098705292
      ],
      "type": "VEC3"
    },
    {
      "bufferView": 2,
      "byteOffset": 118884,
      "componentType": 5126,
      "count": 9907,
      "max": [
        1,
        0.99963021278381348,
        1
      ],
      "min": [
        -1,
        -1,
        -1
      ],
      "type": "VEC3"
    },
    {
      "bufferView": 3,
      "componentType": 5126,
      "count": 9907,
      "max": [
        1,
        1,
        1,
        1
      ],
      "min": [
        -1,
        -1,
        -1,
        -1
      ],
      "type": "VEC4"
    },
    {
      "bufferView": 1,
      "componentType": 5126,
      "count": 9907,
      "max": [
        1.9886109828948975,
        0.9863399863243103
      ],
      "min": [
        1.0146859884262085,
        0.0095750000327825546
      ],
      "type": "VEC2"
    },
    {
      "bufferView": 0,
      "componentType": 5125,
      "count": 34458,
      "max": [
        9906
      ],
      "min": [
        0
      ],
      "type": "SCALAR"
    },
    {
      "bufferView": 2,
      "byteOffset": 237768,
      "componentType": 5126,
      "count": 5917,
      "max": [
        8.4332065582275391,
        13.383794784545898,
        5.136509895324707
      ],
      "min": [
        -8.4332056045532227,
        -13.493137359619141,
        0.36156699061393738
      ],
      "type": "VEC3"
    },
    {
      "bufferView": 2,
      "byteOffset": 308772,
      "componentType": 5126,
      "count": 5917,
      "max": [
        1,
        0.99963176250457764,
        1
      ],
      "min": [
        -1,
        -0.9997590184211731,
        -1
      ],
      "type": "VEC3"
    },
    {
      "bufferView": 3,
      "byteOffset": 158512,
      "componentType": 5126,
      "count": 5917,
      "max": [
        1,
        1,
        0.99998593330383301,
        1
      ],
      "min": [
        -1,
        -0.99973243474960327,
        -0.99896425008773804,
        -1
      ],
      "type": "VEC4"
    },
    {
      "bufferView": 1,
      "byteOffset": 79256,
      "componentType": 5126,
      "count": 5917,
      "max": [
        1.9886109828948975,
        0.9863399863243103
      ],
      "min": [
        1.0146859884262085,
        0.0090070003643631935
      ],
      "type": "VEC2"
    },
    {
      "bufferView": 0,
      "byteOffset": 137832,
      "componentType": 5125,
      "count": 14598,
      "max": [
        5916
      ],
      "min": [
        0
      ],
      "type": "SCALAR"
    },
    {
      "bufferView": 2,
      "byteOffset": 379776,
      "componentType": 5126,
      "count": 8510,
      "max": [
        9.3517637252807617,
        19.072221755981445,
        9.2031030654907227
      ],
      "min": [
        -9.3517646789550781,
        -19.117311477661133,
        0.96815997362136841
      ],
      "type": "VEC3"
    },
    {
      "bufferView": 2,
      "byteOffset": 481896,
      "componentType": 5126,
      "count": 8510,
      "max": [
        1,
        1,
        1
      ],
      "min": [
        -1,
        -1,
        -0.99999964237213135
      ],
      "type": "VEC3"
    },
    {
      "bufferView": 3,
      "byteOffset": 253184,
      "componentType": 5126,
      "count": 8510,
      "max": [
        1,
        0.99999964237213135,
        0.99998235702514648,
        1
      ],
      "min": [
        -1,
        -0.99988299608230591,
        -0.99995976686477661,
        -1
      ],
      "type": "VEC4"
    },
    {
      "bufferView": 1,
      "byteOffset": 126592,
      "componentType": 5126,
      "count": 8510,
      "max": [
        2.997189998626709,
        0.97333997488021851
      ],
      "min": [
        2.0075259208679199,
        0.0028739999979734421
      ],
      "type": "VEC2"
    },
    {
      "bufferView": 0,
      "byteOffset": 196224,
      "componentType": 5125,
      "count": 29472,
      "max": [
        8509
      ],
      "min": [
        0
      ],
      "type": "SCALAR"
    },
    {
      "bufferView": 2,
      "byteOffset": 584016,
      "componentType": 5126,
      "count": 7545,
      "max": [
        7.5620899200439453,
        3.8639891147613525,
        9.558253288269043
      ],
      "min": [
        -7.5620899200439453,
        -12.153386116027832,
        1.3885300159454346
      ],
      "type": "VEC3"
    },
    {
      "bufferView": 2,
      "byteOffset": 674556,
      "componentType": 5126,
      "count": 7545,
      "max": [
        1,
        1,
        1
      ],
      "min": [
        -1,
        -1,
        -0.99898409843444824
      ],
      "type": "VEC3"
    },
    {
      "bufferView": 3,
      "byteOffset": 389344,
      "componentType": 5126,
      "count": 7545,
      "max": [
        1,
        1,
        0.9999886155128479,
        1
      ],
      "min": [
        -1,
        -0.99998539686203003,
        -0.99925541877746582,
        -1
      ],
      "type": "VEC4"
    },
    {
      "bufferView": 1,
      "byteOffset": 194672,
      "componentType": 5126,
      "count": 7545,
      "max": [
        3.9927349090576172,
        0.9899439811706543
      ],
      "min": [
        3.004971981048584,
        0.0066769998520612717
      ],
      "type": "VEC2"
    },
    {
      "bufferView": 0,
      "byteOffset": 314112,
      "componentType": 5125,
      "count": 23154,
      "max": [
        7544
      ],
      "min": [
        0
      ],
      "type": "SCALAR"
    },
    {
      "bufferView": 2,
      "byteOffset": 765096,
      "componentType": 5126,
      "count": 226,
      "max": [
        8.4216203689575195,
        17.315032958984375,
        5.8202462196350098
      ],
      "min": [
        -8.4216184616088867,
        -17.909818649291992,
        1.1824959516525269
      ],
      "type": "VEC3"
    },
    {
      "bufferView": 2,
      "byteOffset": 767808,
      "componentType": 5126,
      "count": 226,
      "max": [
        0.94590586423873901,
        1,
        0.97139865159988403
      ],
      "min": [
        -0.94590586423873901,
        -1,
        -0.67421805858612061
      ],
      "type": "VEC3"
    },
    {
      "bufferView": 3,
      "byteOffset": 510064,
      "componentType": 5126,
      "count": 226,
      "max": [
        0.99999892711639404,
        0.45165348052978516,
        1,
        1
      ],
      "min": [
        -0.99999886751174927,
        -0.97245687246322632,
        -1,
        -1
      ],
      "type": "VEC4"
    },
    {
      "bufferView": 1,
      "byteOffset": 255032,
      "componentType": 5126,
      "count": 226,
      "max": [
        1.9873219728469849,
        0.9796220064163208
      ],
      "min": [
        1.0302850008010864,
        0.003275000024586916
      ],
      "type": "VEC2"
    },
    {
      "bufferView": 0,
      "byteOffset": 406728,
      "componentType": 5125,
      "count": 546,
      "max": [
        225
      ],
      "min": [
        0
      ],
      "type": "SCALAR"
    },
    {
      "bufferView": 2,
      "byteOffset": 770520,
      "componentType": 5126,
      "count": 578,
      "max": [
        7.4046978950500488,
        16.598072052001953,
        8.8084573745727539
      ],
      "min": [
        -7.4046988487243652,
        -17.593486785888672,
        4.1076722145080566
      ],
      "type": "VEC3"
    },
    {
      "bufferView": 2,
      "byteOffset": 777456,
      "componentType": 5126,
      "count": 578,
      "max": [
        0.9982600212097168,
        0.92485886812210083,
        0.99987709522247314
      ],
      "min": [
        -0.99825990200042725,
        -0.87013518810272217,
        -0.99990010261535645
      ],
      "type": "VEC3"
    },
    {
      "bufferView": 3,
      "byteOffset": 513680,
      "componentType": 5126,
      "count": 578,
      "max": [
        0.99668687582015991,
        0.99995672702789307,
        0.71716904640197754,
        1
      ],
      "min": [
        -0.99668687582015991,
        -0.99995261430740356,
        -0.13492801785469055,
        -1
      ],
      "type": "VEC4"
    },
    {
      "bufferView": 1,
      "byteOffset": 256840,
      "componentType": 5126,
      "count": 578,
      "max": [
        2.3823580741882324,
        0.97733700275421143
      ],
      "min": [
        2.0414350032806396,
        0.62015002965927124
      ],
      "type": "VEC2"
    },
    {
      "bufferView": 0,
      "byteOffset": 408912,
      "componentType": 5125,
      "count": 2208,
      "max": [
        577
      ],
      "min": [
        0
      ],
      "type": "SCALAR"
    },
    {
      "bufferView": 2,
      "byteOffset": 784392,
      "componentType": 5126,
      "count": 7297,
      "max": [
        8.5290050506591797,
        17.861854553222656,
        10.050616264343262
      ],
      "min": [
        -8.5290050506591797,
        -18.606595993041992,
        0.97075098752975464
      ],
      "type": "VEC3"
    },
    {
      "bufferView": 2,
      "byteOffset": 871956,
      "componentType": 5126,
      "count": 7297,
      "max": [
        1,
        0.99992275238037109,
        1
      ],
      "min": [
        -1,
        -0.9997594952583313,
        -1
      ],
      "type": "VEC3"
    },
    {
      "bufferView": 3,
      "byteOffset": 522928,
      "componentType": 5126,
      "count": 7297,
      "max": [
        1,
        0.99998682737350464,
        0.99958175420761108,
        1
      ],
      "min": [
        -1,
        -0.99999761581420898,
        -0.99992269277572632,
        -1
      ],
      "type": "VEC4"
    },
    {
      "bufferView": 1,
      "byteOffset": 261464,
      "componentType": 5126,
      "count": 7297,
      "max": [
        0.99703699350357056,
        0.9904789924621582
      ],
      "min": [
        0.011673999950289726,
        0.0037249999586492777
      ],
      "type": "VEC2"
    },
    {
      "bufferView": 0,
      "byteOffset": 417744,
      "componentType": 5125,
      "count": 24201,
      "max": [
        7296
      ],
      "min": [
        0
      ],
      "type": "SCALAR"
    }
  ],
  "asset": {
    "extras": {
      "author": "jkazulyblanco (https://sketchfab.com/jkazulyblanco)",
      "license": "CC-BY-4.0 (http://creativecommons.org/licenses/by/4.0/)",
      "source": "https://sketchfab.com/models/8d253a7f43404113838d72c7fc9cfa94",
      "title": "Koenigsegg One1 low poly"
    },
    "generator": "Sketchfab-3.54.8-rc1",
    "version": "2.0"
  },
  "bufferViews": [
    {
      "buffer": 0,
      "byteLength": 514548,
      "byteOffset": 0,
      "name": "floatBufferViews",
      "target": 34963
    },
    {
      "buffer": 0,
      "byteLength": 319840,
      "byteOffset": 514548,
      "byteStride": 8,
      "name": "floatBufferViews",
      "target": 34962
    },
    {
      "buffer": 0,
      "byteLength": 959520,
      "byteOffset": 834388,
      "byteStride": 12,
      "name": "floatBufferViews",
      "target": 34962
    },
    {
      "buffer": 0,
      "byteLength": 639680,
      "byteOffset": 1793908,
      "byteStride": 16,
      "name": "floatBufferViews",
      "target": 34962
    }
  ],
  "buffers": [
    {
      "byteLength": 2433588,
      "uri": "scene.bin"
    }
  ],
  "images": [
    {
      "uri": "textures/lambert10SG_metallicRoughness.png"
    },
    {
      "uri": "textures/lambert10SG_baseColor.png"
    },
    {
      "uri": "textures/lambert10SG_normal.png"
    },
    {
      "uri": "textures/lambert16SG_metallicRoughness.png"
    },
    {
      "uri": "textures/lambert16SG_baseColor.png"
    },
    {
      "uri": "textures/lambert9SG_metallicRoughness.png"
    },
    {
      "uri": "textures/lambert9SG_baseColor.png"
    },
    {
      "uri": "textures/lambert9SG_normal.png"
    },
    {
      "uri": "textures/lambert13SG_metallicRoughness.png"
    },
    {
      "uri": "textures/lambert13SG_baseColor.png"
    },
    {
      "uri": "textures/lambert13SG_normal.png"
    },
    {
      "uri": "textures/lambert12SG_metallicRoughness.png"
    },
    {
      "uri": "textures/lambert12SG_baseColor.png"
    },
    {
      "uri": "textures/lambert12SG_normal.png"
    },
    {
      "uri": "textures/lambert11SG_metallicRoughness.png"
    },
    {
      "uri": "textures/lambert11SG_baseColor.png"
    },
    {
      "uri": "textures/lambert11SG_normal.png"
    },
    {
      "uri": "textures/lambert11SG_emissive.png"
    }
  ],
  "materials": [
    {
      "doubleSided": true,
      "name": "lambert10SG",
      "normalTexture": {
        "index": 2,
        "scale": 1,
        "texCoord": 0
      },
      "occlusionTexture": {
        "index": 0,
        "strength": 1,
        "texCoord": 0
      },
      "pbrMetallicRoughness": {
        "baseColorFactor": [
          1,
          1,
          1,
          1
        ],
        "baseColorTexture": {
          "index": 1,
          "texCoord": 0
        },
        "metallicFactor": 1,
        "metallicRoughnessTexture": {
          "index": 0,
          "texCoord": 0
        },
        "roughnessFactor": 1
      }
    },
    {
      "doubleSided": true,
      "emissiveFactor": [
        1,
        1,
        1
      ],
      "emissiveTexture": {
        "index": 17,
        "texCoord": 0
      },
      "name": "lambert11SG",
      "normalTexture": {
        "index": 16,
        "scale": 1,
        "texCoord": 0
      },
      "occlusionTexture": {
        "index": 14,
        "strength": 1,
        "texCoord": 0
      },
      "pbrMetallicRoughness": {
        "baseColorFactor": [
          1,
          1,
          1,
          1
        ],
        "baseColorTexture": {
          "index": 15,
          "texCoord": 0
        },
        "metallicFactor": 1,
        "metallicRoughnessTexture": {
          "index": 14,
          "texCoord": 0
        },
        "roughnessFactor": 1
      }
    },
    {
      "doubleSided": true,
      "emissiveFactor": [
        0,
        0,
        0
      ],
      "name": "lambert12SG",
      "normalTexture": {
        "index": 13,
        "scale": 1,
        "texCoord": 0
      },
      "occlusionTexture": {
        "index": 11,
        "strength": 1,
        "texCoord": 0
      },
      "pbrMetallicRoughness": {
        "baseColorFactor": [
          1,
          1,
          1,
          1
        ],
        "baseColorTexture": {
          "index": 12,
          "texCoord": 0
        },
        "metallicFactor": 1,
        "metallicRoughnessTexture": {
          "index": 11,
          "texCoord": 0
        },
        "roughnessFactor": 1
      }
    },
    {
      "alphaMode": "BLEND",
      "doubleSided": true,
      "name": "lambert13SG",
      "normalTexture": {
        "index": 10,
        "scale": 1,
        "texCoord": 0
      },
      "occlusionTexture": {
        "index": 8,
        "strength": 1,
        "texCoord": 0
      },
      "pbrMetallicRoughness": {
        "baseColorFactor": [
          1,
          1,
          1,
          1
        ],
        "baseColorTexture": {
          "index": 9,
          "texCoord": 0
        },
        "metallicFactor": 1,
        "metallicRoughnessTexture": {
          "index": 8,
          "texCoord": 0
        },
        "roughnessFactor": 1
      }
    },
    {
      "alphaMode": "BLEND",
      "doubleSided": true,
      "emissiveFactor": [
        0,
        0,
        0
      ],
      "name": "lambert16SG",
      "occlusionTexture": {
        "index": 3,
        "strength": 1,
        "texCoord": 0
      },
      "pbrMetallicRoughness": {
        "baseColorFactor": [
          1,
          1,
          1,
          1
        ],
        "baseColorTexture": {
          "index": 4,
          "texCoord": 0
        },
        "metallicFactor": 1,
        "metallicRoughnessTexture": {
          "index": 3,
          "texCoord": 0
        },
        "roughnessFactor": 1
      }
    },
    {
      "doubleSided": true,
      "name": "lambert9SG",
      "normalTexture": {
        "index": 7,
        "scale": 1,
        "texCoord": 0
      },
      "occlusionTexture": {
        "index": 5,
        "strength": 1,
        "texCoord": 0
      },
      "pbrMetallicRoughness": {
        "baseColorFactor": [
          1,
          1,
          1,
          1
        ],
        "baseColorTexture": {
          "index": 6,
          "texCoord": 0
        },
        "metallicFactor": 1,
        "metallicRoughnessTexture": {
          "index": 5,
          "texCoord": 0
        },
        "roughnessFactor": 1
      }
    }
  ],
  "meshes": [
    {
      "primitives": [
        {
          "attributes": {
            "NORMAL": 1,
            "POSITION": 0,
            "TANGENT": 2,
            "TEXCOORD_0": 3
          },
          "indices": 4,
          "material": 0,
          "mode": 4
        }
      ]
    },
    {
      "primitives": [
        {
          "attributes": {
            "NORMAL": 6,
            "POSITION": 5,
            "TANGENT": 7,
            "TEXCOORD_0": 8
          },
          "indices": 9,
          "material": 0,
          "mode": 4
        }
      ]
    },
    {
      "primitives": [
        {
          "attributes": {
            "NORMAL": 11,
            "POSITION": 10,
            "TANGENT": 12,
            "TEXCOORD_0": 13
          },
          "indices": 14,
          "material": 1,
          "mode": 4
        }
      ]
    },
    {
      "primitives": [
        {
          "attributes": {
            "NORMAL": 16,
            "POSITION": 15,
            "TANGENT": 17,
            "TEXCOORD_0": 18
          },
          "indices": 19,
          "material": 2,
          "mode": 4
        }
      ]
    },
    {
      "primitives": [
        {
          "attributes": {
            "NORMAL": 21,
            "POSITION": 20,
            "TANGENT": 22,
            "TEXCOORD_0": 23
          },
          "indices": 24,
          "material": 3,
          "mode": 4
        }
      ]
    },
    {
      "primitives": [
        {
          "attributes": {
            "NORMAL": 26,
            "POSITION": 25,
            "TANGENT": 27,
            "TEXCOORD_0": 28
          },
          "indices": 29,
          "material": 4,
          "mode": 4
        }
      ]
    },
    {
      "primitives": [
        {
          "attributes": {
            "NORMAL": 31,
            "POSITION": 30,
            "TANGENT": 32,
            "TEXCOORD_0": 33
          },
          "indices": 34,
          "material": 5,
          "mode": 4
        }
      ]
    }
  ],
  "nodes": [
    {
      "children": [
        1
      ],
      "name": "RootNode (gltf orientation matrix)",
      "rotation": [
        -0.70710678118654746,
        -0,
        -0,
        0.70710678118654757
      ]
    },
    {
      "children": [
        2
      ],
      "name": "RootNode (model correction matrix)"
    },
    {
      "children": [
        3,
        4,
        5,
        6,
        7,
        8,
        9
      ],
      "name": "Koenisegg one.obj.cleaner.materialmerger.gles"
    },
    {
      "mesh": 0,
      "name": ""
    },
    {
      "mesh": 1,
      "name": ""
    },
    {
      "mesh": 2,
      "name": ""
    },
    {
      "mesh": 3,
      "name": ""
    },
    {
      "mesh": 4,
      "name": ""
    },
    {
      "mesh": 5,
      "name": ""
    },
    {
      "mesh": 6,
      "name": ""
    }
  ],
  "samplers": [
    {
      "magFilter": 9729,
      "minFilter": 9987,
      "wrapS": 10497,
      "wrapT": 10497
    }
  ],
  "scene": 0,
  "scenes": [
    {
      "name": "OSG_Scene",
      "nodes": [
        0
      ]
    }
  ],
  "textures": [
    {
      "sampler": 0,
      "source": 0
    },
    {
      "sampler": 0,
      "source": 1
    },
    {
      "sampler": 0,
      "source": 2
    },
    {
      "sampler": 0,
      "source": 3
    },
    {
      "sampler": 0,
      "source": 4
    },
    {
      "sampler": 0,
      "source": 5
    },
    {
      "sampler": 0,
      "source": 6
    },
    {
      "sampler": 0,
      "source": 7
    },
    {
      "sampler": 0,
      "source": 8
    },
    {
      "sampler": 0,
      "source": 9
    },
    {
      "sampler": 0,
      "source": 10
    },
    {
      "sampler": 0,
      "source": 11
    },
    {
      "sampler": 0,
      "source": 12
    },
    {
      "sampler": 0,
      "source": 13
    },
    {
      "sampler": 0,
      "source": 14
    },
    {
      "sampler": 0,
      "source": 15
    },
    {
      "sampler": 0,
      "source": 16
    },
    {
      "sampler": 0,
      "source": 17
    }
  ]
}

