{
    "asset" : {
        "version" : "2.0",
        "generator" : "Khronos glTF Blender I/O v0.9.71"
    },
    "scene" : 0,
    "scenes" : [
        {
            "nodes" : [
                0
            ],
            "name" : "Scene"
        }
    ],
    "nodes" : [
        {
            "rotation" : [
                -0.010780692100524902,
                0,
                0,
                0.9999418258666992
            ],
            "name" : "Barcelona.stl",
            "mesh" : 0
        }
    ],
    "materials" : [
        {
            "pbrMetallicRoughness" : {
                "metallicFactor" : 0.5,
                "roughnessFactor" : 0.5,
                "baseColorFactor" : [
                    1,
                    1,
                    1,
                    1
                ]
            },
            "name" : "Material_0"
        }
    ],
    "meshes" : [
        {
            "primitives" : [
                {
                    "indices" : 2,
                    "attributes" : {
                        "POSITION" : 0,
                        "NORMAL" : 1
                    },
                    "material" : 0
                }
            ],
            "name" : "Mesh_0"
        }
    ],
    "accessors" : [
        {
            "bufferView" : 0,
            "max" : [
                447.1932067871094,
                5,
                -8.647683143615723
            ],
            "count" : 35490,
            "min" : [
                -38.295230865478516,
                0,
                -155.39349365234375
            ],
            "type" : "VEC3",
            "componentType" : 5126
        },
        {
            "bufferView" : 1,
            "componentType" : 5126,
            "count" : 35490,
            "type" : "VEC3"
        },
        {
            "bufferView" : 2,
            "componentType" : 5123,
            "count" : 35490,
            "type" : "SCALAR"
        }
    ],
    "bufferViews" : [
        {
            "byteOffset" : 0,
            "byteLength" : 425880,
            "buffer" : 0
        },
        {
            "byteOffset" : 425880,
            "byteLength" : 425880,
            "buffer" : 0
        },
        {
            "byteOffset" : 851760,
            "byteLength" : 70980,
            "buffer" : 0
        }
    ],
    "buffers" : [
        {
            "uri" : "data:application/octet-stream;base64,",
            "byteLength" : 922740
        }
    ]
}
