{
    "asset" : {
        "generator" : "Khronos glTF Blender I/O v0.9.36",
        "version" : "2.0"
    },
    "scene" : 0,
    "scenes" : [
        {
            "name" : "Scene",
            "nodes" : [
                0
            ]
        }
    ],
    "nodes" : [
        {
            "mesh" : 0,
            "name" : "Bathurst",
            "rotation" : [
                0.706357479095459,
                0,
                0,
                0.7078553438186646
            ],
            "scale" : [
                1,
                0.9999957084655762,
                0.005073751788586378
            ]
        }
    ],
    "materials" : [
        {
            "name" : "Material_0",
            "pbrMetallicRoughness" : {
                "baseColorFactor" : [
                    1,
                    1,
                    1,
                    1
                ],
                "metallicFactor" : 0.5,
                "roughnessFactor" : 0.5
            }
        }
    ],
    "meshes" : [
        {
            "name" : "Mesh_0",
            "primitives" : [
                {
                    "attributes" : {
                        "POSITION" : 0,
                        "NORMAL" : 1
                    },
                    "indices" : 2,
                    "material" : 0
                }
            ]
        }
    ],
    "accessors" : [
        {
            "bufferView" : 0,
            "componentType" : 5126,
            "count" : 25476,
            "max" : [
                376.4118957519531,
                31.539609909057617,
                0
            ],
            "min" : [
                -14.090720176696777,
                -185.4248046875,
                -8
            ],
            "type" : "VEC3"
        },
        {
            "bufferView" : 1,
            "componentType" : 5126,
            "count" : 25476,
            "type" : "VEC3"
        },
        {
            "bufferView" : 2,
            "componentType" : 5123,
            "count" : 25476,
            "type" : "SCALAR"
        }
    ],
    "bufferViews" : [
        {
            "buffer" : 0,
            "byteLength" : 305712,
            "byteOffset" : 0
        },
        {
            "buffer" : 0,
            "byteLength" : 305712,
            "byteOffset" : 305712
        },
        {
            "buffer" : 0,
            "byteLength" : 50952,
            "byteOffset" : 611424
        }
    ],
    "buffers" : [
        {
            "byteLength" : 662376,
            "uri" : "data:application/octet-stream;base64,"
        }
    ]
}
