{
    "asset" : {
        "generator" : "Khronos glTF Blender I/O v0.9.36",
        "version" : "2.0"
    },
    "scene" : 0,
    "scenes" : [
        {
            "name" : "Scene",
            "nodes" : [
                0
            ]
        }
    ],
    "nodes" : [
        {
            "mesh" : 0,
            "name" : "Brands-Hatch",
            "rotation" : [
                -0.004561722278594971,
                0,
                0,
                0.9999896287918091
            ],
            "scale" : [
                1,
                0.10243423283100128,
                0.9999589323997498
            ]
        }
    ],
    "materials" : [
        {
            "name" : "Material_0",
            "pbrMetallicRoughness" : {
                "baseColorFactor" : [
                    1,
                    1,
                    1,
                    1
                ],
                "metallicFactor" : 0.5,
                "roughnessFactor" : 0.5
            }
        }
    ],
    "meshes" : [
        {
            "name" : "Mesh_0",
            "primitives" : [
                {
                    "attributes" : {
                        "POSITION" : 0,
                        "NORMAL" : 1
                    },
                    "indices" : 2,
                    "material" : 0
                }
            ]
        }
    ],
    "accessors" : [
        {
            "bufferView" : 0,
            "componentType" : 5126,
            "count" : 27540,
            "max" : [
                377.3819885253906,
                5,
                -6.9048171043396
            ],
            "min" : [
                -5.619565963745117,
                0,
                -246.87030029296875
            ],
            "type" : "VEC3"
        },
        {
            "bufferView" : 1,
            "componentType" : 5126,
            "count" : 27540,
            "type" : "VEC3"
        },
        {
            "bufferView" : 2,
            "componentType" : 5123,
            "count" : 27540,
            "type" : "SCALAR"
        }
    ],
    "bufferViews" : [
        {
            "buffer" : 0,
            "byteLength" : 330480,
            "byteOffset" : 0
        },
        {
            "buffer" : 0,
            "byteLength" : 330480,
            "byteOffset" : 330480
        },
        {
            "buffer" : 0,
            "byteLength" : 55080,
            "byteOffset" : 660960
        }
    ],
    "buffers" : [
        {
            "byteLength" : 716040,
            "uri" : "data:application/octet-stream;base64,"
        }
    ]
}
