{
    "asset" : {
        "generator" : "Khronos glTF Blender I/O v0.9.36",
        "version" : "2.0"
    },
    "scene" : 0,
    "scenes" : [
        {
            "name" : "Scene",
            "nodes" : [
                1
            ]
        }
    ],
    "nodes" : [
        {
            "mesh" : 0,
            "name" : "Hungaroring",
            "rotation" : [
                -0.4688866436481476,
                0,
                0,
                0.8832582831382751
            ]
        },
        {
            "children" : [
                0
            ],
            "name" : "__root__",
            "rotation" : [
                0.06801523268222809,
                0,
                0,
                0.9976842999458313
            ],
            "scale" : [
                1,
                0.10000001639127731,
                1
            ]
        }
    ],
    "materials" : [
        {
            "emissiveFactor" : [
                0,
                0,
                0
            ],
            "name" : "material0",
            "pbrMetallicRoughness" : {
                "baseColorFactor" : [
                    1,
                    1,
                    1,
                    1
                ],
                "metallicFactor" : 0.5,
                "roughnessFactor" : 0.5
            }
        }
    ],
    "meshes" : [
        {
            "name" : "Mesh_0",
            "primitives" : [
                {
                    "attributes" : {
                        "POSITION" : 0,
                        "NORMAL" : 1
                    },
                    "indices" : 2,
                    "material" : 0
                }
            ]
        }
    ],
    "accessors" : [
        {
            "bufferView" : 0,
            "componentType" : 5126,
            "count" : 27264,
            "max" : [
                258.53961181640625,
                0,
                -5.782978057861328
            ],
            "min" : [
                7.601909160614014,
                -5,
                -276.29638671875
            ],
            "type" : "VEC3"
        },
        {
            "bufferView" : 1,
            "componentType" : 5126,
            "count" : 27264,
            "type" : "VEC3"
        },
        {
            "bufferView" : 2,
            "componentType" : 5123,
            "count" : 27264,
            "type" : "SCALAR"
        }
    ],
    "bufferViews" : [
        {
            "buffer" : 0,
            "byteLength" : 327168,
            "byteOffset" : 0
        },
        {
            "buffer" : 0,
            "byteLength" : 327168,
            "byteOffset" : 327168
        },
        {
            "buffer" : 0,
            "byteLength" : 54528,
            "byteOffset" : 654336
        }
    ],
    "buffers" : [
        {
            "byteLength" : 708864,
            "uri" : "data:application/octet-stream;base64,"
        }
    ]
}
