{
  "asset": {
    "generator": "BabylonJS",
    "version": "2.0"
  },
  "buffers": [
    {
      "name": "Indianapolis",
      "byteLength": 1065456,
      "uri": "data:application/octet-stream;base64,"
    }
  ],
  "nodes": [
    {
      "name": "__root__",
      "scale": [
        1,
        1,
        0.1
      ],
      "rotation": [
        -0.7089555570807734,
        4.3184301179422e-17,
        4.341100768583489e-17,
        0.7052531588616178
      ],
      "children": [
        1
      ],
      "translation": [
        0,
        0,
        0
      ]
    },
    {
      "name": "Indianapolis",
      "mesh": 0
    }
  ],
  "meshes": [
    {
      "primitives": [
        {
          "attributes": {
            "POSITION": 0,
            "NORMAL": 1
          },
          "material": 0,
          "mode": 4
        }
      ]
    }
  ],
  "scenes": [
    {
      "nodes": [
        0
      ]
    }
  ],
  "scene": 0,
  "bufferViews": [
    {
      "buffer": 0,
      "byteLength": 532728,
      "name": "position - Indianapolis.stl",
      "byteStride": 12,
      "byteOffset": 0,
      "target": 34962
    },
    {
      "buffer": 0,
      "byteLength": 532728,
      "byteOffset": 532728,
      "name": "normal - Indianapolis.stl",
      "byteStride": 12,
      "target": 34962
    }
  ],
  "accessors": [
    {
      "name": "position - Indianapolis.stl",
      "bufferView": 0,
      "componentType": 5126,
      "count": 44394,
      "type": "VEC3",
      "min": [
        -32.03092956542969,
        4.209762096405029,
        -5
      ],
      "max": [
        429.3714904785156,
        229.09519958496094,
        0
      ],
      "byteOffset": 0
    },
    {
      "name": "normal - Indianapolis.stl",
      "bufferView": 1,
      "componentType": 5126,
      "count": 44394,
      "type": "VEC3",
      "byteOffset": 0
    }
  ],
  "materials": [
    {
      "name": "material0",
      "pbrMetallicRoughness": {
        "baseColorFactor": [
          1,
          1,
          1,
          1
        ],
        "metallicFactor": 0.5,
        "roughnessFactor": 0.5
      },
      "emissiveFactor": [
        0,
        0,
        0
      ],
      "alphaMode": "OPAQUE",
      "doubleSided": false
    }
  ]
}
