{
  "asset": {
    "generator": "BabylonJS",
    "version": "2.0"
  },
  "buffers": [
    {
      "name": "Interlagos",
      "byteLength": 612000,
      "uri": "data:application/octet-stream;base64,"
    }
  ],
  "nodes": [
    {
      "name": "__root__",
      "scale": [
        1,
        1,
        0.1
      ],
      "rotation": [
        -0.7089555570807734,
        4.3184301179422e-17,
        4.341100768583489e-17,
        0.7052531588616178
      ],
      "children": [
        1
      ],
      "translation": [
        0,
        0,
        0
      ]
    },
    {
      "name": "Interlagos",
      "mesh": 0
    }
  ],
  "meshes": [
    {
      "primitives": [
        {
          "attributes": {
            "POSITION": 0,
            "NORMAL": 1
          },
          "material": 0,
          "mode": 4
        }
      ]
    }
  ],
  "scenes": [
    {
      "nodes": [
        0
      ]
    }
  ],
  "scene": 0,
  "bufferViews": [
    {
      "buffer": 0,
      "byteLength": 306000,
      "name": "position - Interlagos.stl",
      "byteStride": 12,
      "byteOffset": 0,
      "target": 34962
    },
    {
      "buffer": 0,
      "byteLength": 306000,
      "byteOffset": 306000,
      "name": "normal - Interlagos.stl",
      "byteStride": 12,
      "target": 34962
    }
  ],
  "accessors": [
    {
      "name": "position - Interlagos.stl",
      "bufferView": 0,
      "componentType": 5126,
      "count": 25500,
      "type": "VEC3",
      "min": [
        -25.2114200592041,
        8.49744701385498,
        -5
      ],
      "max": [
        249.01870727539062,
        268.8186950683594,
        0
      ],
      "byteOffset": 0
    },
    {
      "name": "normal - Interlagos.stl",
      "bufferView": 1,
      "componentType": 5126,
      "count": 25500,
      "type": "VEC3",
      "byteOffset": 0
    }
  ],
  "materials": [
    {
      "name": "material0",
      "pbrMetallicRoughness": {
        "baseColorFactor": [
          1,
          1,
          1,
          1
        ],
        "metallicFactor": 0.5,
        "roughnessFactor": 0.5
      },
      "emissiveFactor": [
        0,
        0,
        0
      ],
      "alphaMode": "OPAQUE",
      "doubleSided": false
    }
  ]
}
