{
    "asset" : {
        "generator" : "Khronos glTF Blender I/O v0.9.36",
        "version" : "2.0"
    },
    "scene" : 0,
    "scenes" : [
        {
            "name" : "Scene",
            "nodes" : [
                1
            ]
        }
    ],
    "nodes" : [
        {
            "mesh" : 0,
            "name" : "Kyalami",
            "rotation" : [
                0.4862905740737915,
                0,
                0,
                0.8737972378730774
            ]
        },
        {
            "children" : [
                0
            ],
            "name" : "__root__",
            "rotation" : [
                -0.09758291393518448,
                0,
                0,
                0.9952273964881897
            ],
            "scale" : [
                1,
                0.10000002384185791,
                1
            ]
        }
    ],
    "materials" : [
        {
            "emissiveFactor" : [
                0,
                0,
                0
            ],
            "name" : "material0",
            "pbrMetallicRoughness" : {
                "baseColorFactor" : [
                    1,
                    1,
                    1,
                    1
                ],
                "metallicFactor" : 0.5,
                "roughnessFactor" : 0.5
            }
        }
    ],
    "meshes" : [
        {
            "name" : "Mesh_0",
            "primitives" : [
                {
                    "attributes" : {
                        "POSITION" : 0,
                        "NORMAL" : 1
                    },
                    "indices" : 2,
                    "material" : 0
                }
            ]
        }
    ],
    "accessors" : [
        {
            "bufferView" : 0,
            "componentType" : 5126,
            "count" : 22776,
            "max" : [
                379.4237060546875,
                0,
                -10.92492961883545
            ],
            "min" : [
                2.8246560096740723,
                -5,
                -248.32229614257812
            ],
            "type" : "VEC3"
        },
        {
            "bufferView" : 1,
            "componentType" : 5126,
            "count" : 22776,
            "type" : "VEC3"
        },
        {
            "bufferView" : 2,
            "componentType" : 5123,
            "count" : 22776,
            "type" : "SCALAR"
        }
    ],
    "bufferViews" : [
        {
            "buffer" : 0,
            "byteLength" : 273312,
            "byteOffset" : 0
        },
        {
            "buffer" : 0,
            "byteLength" : 273312,
            "byteOffset" : 273312
        },
        {
            "buffer" : 0,
            "byteLength" : 45552,
            "byteOffset" : 546624
        }
    ],
    "buffers" : [
        {
            "byteLength" : 592176,
            "uri" : "data:application/octet-stream;base64,"
        }
    ]
}
