{
    "asset" : {
        "generator" : "Khronos glTF Blender I/O v0.9.36",
        "version" : "2.0"
    },
    "scene" : 0,
    "scenes" : [
        {
            "name" : "Scene",
            "nodes" : [
                1
            ]
        }
    ],
    "nodes" : [
        {
            "mesh" : 0,
            "name" : "Monaco",
            "rotation" : [
                0.31067758798599243,
                0,
                0,
                0.9505154490470886
            ],
            "scale" : [
                1,
                0.10364427417516708,
                0.9971839189529419
            ]
        },
        {
            "children" : [
                0
            ],
            "name" : "__root__",
            "rotation" : [
                -0.07410839200019836,
                0,
                0,
                0.9972501993179321
            ],
            "scale" : [
                1,
                0.10000001639127731,
                1
            ]
        }
    ],
    "materials" : [
        {
            "emissiveFactor" : [
                0,
                0,
                0
            ],
            "name" : "material0",
            "pbrMetallicRoughness" : {
                "baseColorFactor" : [
                    1,
                    1,
                    1,
                    1
                ],
                "metallicFactor" : 0.5,
                "roughnessFactor" : 0.5
            }
        }
    ],
    "meshes" : [
        {
            "name" : "Mesh_0",
            "primitives" : [
                {
                    "attributes" : {
                        "POSITION" : 0,
                        "NORMAL" : 1
                    },
                    "indices" : 2,
                    "material" : 0
                }
            ]
        }
    ],
    "accessors" : [
        {
            "bufferView" : 0,
            "componentType" : 5126,
            "count" : 22872,
            "max" : [
                264.4194030761719,
                0,
                -1.7041399478912354
            ],
            "min" : [
                -4.924286842346191,
                -5,
                -265.4457092285156
            ],
            "type" : "VEC3"
        },
        {
            "bufferView" : 1,
            "componentType" : 5126,
            "count" : 22872,
            "type" : "VEC3"
        },
        {
            "bufferView" : 2,
            "componentType" : 5123,
            "count" : 22872,
            "type" : "SCALAR"
        }
    ],
    "bufferViews" : [
        {
            "buffer" : 0,
            "byteLength" : 274464,
            "byteOffset" : 0
        },
        {
            "buffer" : 0,
            "byteLength" : 274464,
            "byteOffset" : 274464
        },
        {
            "buffer" : 0,
            "byteLength" : 45744,
            "byteOffset" : 548928
        }
    ],
    "buffers" : [
        {
            "byteLength" : 594672,
            "uri" : "data:application/octet-stream;base64,"
        }
    ]
}
