{
  "asset": {
    "generator": "BabylonJS",
    "version": "2.0"
  },
  "buffers": [
    {
      "name": "Montreal",
      "byteLength": 583776,
      "uri": "data:application/octet-stream;base64,"
    }
  ],
  "nodes": [
    {
      "name": "__root__",
      "scale": [
        1,
        1,
        0.1
      ],
      "rotation": [
        -0.7259747974223262,
        4.211078475066097e-17,
        4.4453135596244993e-17,
        0.6877213051139339
      ],
      "children": [
        1
      ],
      "translation": [
        0,
        0,
        0
      ]
    },
    {
      "name": "Montreal",
      "mesh": 0
    }
  ],
  "meshes": [
    {
      "primitives": [
        {
          "attributes": {
            "POSITION": 0,
            "NORMAL": 1
          },
          "material": 0,
          "mode": 4
        }
      ]
    }
  ],
  "scenes": [
    {
      "nodes": [
        0
      ]
    }
  ],
  "scene": 0,
  "bufferViews": [
    {
      "buffer": 0,
      "byteLength": 291888,
      "name": "position - Montreal.stl",
      "byteStride": 12,
      "byteOffset": 0,
      "target": 34962
    },
    {
      "buffer": 0,
      "byteLength": 291888,
      "byteOffset": 291888,
      "name": "normal - Montreal.stl",
      "byteStride": 12,
      "target": 34962
    }
  ],
  "accessors": [
    {
      "name": "position - Montreal.stl",
      "bufferView": 0,
      "componentType": 5126,
      "count": 24324,
      "type": "VEC3",
      "min": [
        -116.18730163574219,
        -84.2392578125,
        -5
      ],
      "max": [
        340.9529113769531,
        169.81280517578125,
        0
      ],
      "byteOffset": 0
    },
    {
      "name": "normal - Montreal.stl",
      "bufferView": 1,
      "componentType": 5126,
      "count": 24324,
      "type": "VEC3",
      "byteOffset": 0
    }
  ],
  "materials": [
    {
      "name": "material0",
      "pbrMetallicRoughness": {
        "baseColorFactor": [
          1,
          1,
          1,
          1
        ],
        "metallicFactor": 0.5,
        "roughnessFactor": 0.5
      },
      "emissiveFactor": [
        0,
        0,
        0
      ],
      "alphaMode": "OPAQUE",
      "doubleSided": false
    }
  ]
}
