{
    "asset" : {
        "generator" : "Khronos glTF Blender I/O v0.9.36",
        "version" : "2.0"
    },
    "scene" : 0,
    "scenes" : [
        {
            "name" : "Scene",
            "nodes" : [
                1
            ]
        }
    ],
    "nodes" : [
        {
            "mesh" : 0,
            "name" : "Monza",
            "scale" : [
                1,
                0.07321548461914062,
                0.9985402822494507
            ]
        },
        {
            "children" : [
                0
            ],
            "name" : "__root__",
            "rotation" : [
                -0.027049239724874496,
                0,
                0,
                0.9996342062950134
            ],
            "scale" : [
                1,
                0.10000002384185791,
                1
            ]
        }
    ],
    "materials" : [
        {
            "emissiveFactor" : [
                0,
                0,
                0
            ],
            "name" : "material0",
            "pbrMetallicRoughness" : {
                "baseColorFactor" : [
                    1,
                    1,
                    1,
                    1
                ],
                "metallicFactor" : 0.5,
                "roughnessFactor" : 0.5
            }
        }
    ],
    "meshes" : [
        {
            "name" : "Mesh_0",
            "primitives" : [
                {
                    "attributes" : {
                        "POSITION" : 0,
                        "NORMAL" : 1
                    },
                    "indices" : 2,
                    "material" : 0
                }
            ]
        }
    ],
    "accessors" : [
        {
            "bufferView" : 0,
            "componentType" : 5126,
            "count" : 17724,
            "max" : [
                398.5209045410156,
                0,
                -9.60122299194336
            ],
            "min" : [
                -43.38689041137695,
                -5,
                -221.27740478515625
            ],
            "type" : "VEC3"
        },
        {
            "bufferView" : 1,
            "componentType" : 5126,
            "count" : 17724,
            "type" : "VEC3"
        },
        {
            "bufferView" : 2,
            "componentType" : 5123,
            "count" : 17724,
            "type" : "SCALAR"
        }
    ],
    "bufferViews" : [
        {
            "buffer" : 0,
            "byteLength" : 212688,
            "byteOffset" : 0
        },
        {
            "buffer" : 0,
            "byteLength" : 212688,
            "byteOffset" : 212688
        },
        {
            "buffer" : 0,
            "byteLength" : 35448,
            "byteOffset" : 425376
        }
    ],
    "buffers" : [
        {
            "byteLength" : 460824,
            "uri" : "data:application/octet-stream;base64,"
        }
    ]
}
