{
    "asset" : {
        "generator" : "Khronos glTF Blender I/O v0.9.36",
        "version" : "2.0"
    },
    "scene" : 0,
    "scenes" : [
        {
            "name" : "Scene",
            "nodes" : [
                2
            ]
        }
    ],
    "nodes" : [
        {
            "mesh" : 0,
            "name" : "xxx",
            "rotation" : [
                0.5174177885055542,
                0,
                0,
                0.8557329773902893
            ],
            "scale" : [
                1,
                0.044192150235176086,
                0.9999744892120361
            ]
        },
        {
            "children" : [
                0
            ],
            "name" : "Nurburgring"
        },
        {
            "children" : [
                1
            ],
            "name" : "__root__",
            "rotation" : [
                -0.09758291393518448,
                0,
                0,
                0.9952273964881897
            ],
            "scale" : [
                1,
                0.10000002384185791,
                1
            ]
        }
    ],
    "materials" : [
        {
            "emissiveFactor" : [
                0,
                0,
                0
            ],
            "name" : "DefaultMaterial",
            "pbrMetallicRoughness" : {
                "baseColorFactor" : [
                    1,
                    1,
                    1,
                    1
                ],
                "metallicFactor" : 0.5,
                "roughnessFactor" : 0.5
            }
        }
    ],
    "meshes" : [
        {
            "name" : "Mesh_0",
            "primitives" : [
                {
                    "attributes" : {
                        "POSITION" : 0,
                        "NORMAL" : 1
                    },
                    "indices" : 2,
                    "material" : 0
                }
            ]
        }
    ],
    "accessors" : [
        {
            "bufferView" : 0,
            "componentType" : 5126,
            "count" : 43284,
            "max" : [
                128.9759979248047,
                0,
                -7.4067702293396
            ],
            "min" : [
                -9.369199752807617,
                -3.5,
                -152.0989990234375
            ],
            "type" : "VEC3"
        },
        {
            "bufferView" : 1,
            "componentType" : 5126,
            "count" : 43284,
            "type" : "VEC3"
        },
        {
            "bufferView" : 2,
            "componentType" : 5123,
            "count" : 43284,
            "type" : "SCALAR"
        }
    ],
    "bufferViews" : [
        {
            "buffer" : 0,
            "byteLength" : 519408,
            "byteOffset" : 0
        },
        {
            "buffer" : 0,
            "byteLength" : 519408,
            "byteOffset" : 519408
        },
        {
            "buffer" : 0,
            "byteLength" : 86568,
            "byteOffset" : 1038816
        }
    ],
    "buffers" : [
        {
            "byteLength" : 1125384,
            "uri" : "data:application/octet-stream;base64,"
        }
    ]
}
