{
    "asset" : {
        "generator" : "Khronos glTF Blender I/O v0.9.36",
        "version" : "2.0"
    },
    "scene" : 0,
    "scenes" : [
        {
            "name" : "Scene",
            "nodes" : [
                1
            ]
        }
    ],
    "nodes" : [
        {
            "mesh" : 0,
            "name" : "Silverstone",
            "rotation" : [
                0.46928369998931885,
                0,
                0,
                0.8830475807189941
            ],
            "scale" : [
                1,
                0.051508642733097076,
                1
            ]
        },
        {
            "children" : [
                0
            ],
            "name" : "__root__",
            "rotation" : [
                -0.07410839200019836,
                0,
                0,
                0.9972501993179321
            ],
            "scale" : [
                1,
                0.10000001639127731,
                1
            ]
        }
    ],
    "materials" : [
        {
            "emissiveFactor" : [
                0,
                0,
                0
            ],
            "name" : "material0",
            "pbrMetallicRoughness" : {
                "baseColorFactor" : [
                    1,
                    1,
                    1,
                    1
                ],
                "metallicFactor" : 0.5,
                "roughnessFactor" : 0.5
            }
        }
    ],
    "meshes" : [
        {
            "name" : "Mesh_0",
            "primitives" : [
                {
                    "attributes" : {
                        "POSITION" : 0,
                        "NORMAL" : 1
                    },
                    "indices" : 2,
                    "material" : 0
                }
            ]
        }
    ],
    "accessors" : [
        {
            "bufferView" : 0,
            "componentType" : 5126,
            "count" : 32388,
            "max" : [
                498.29180908203125,
                0,
                -8.968185424804688
            ],
            "min" : [
                0.9616121053695679,
                -9,
                -308.2626037597656
            ],
            "type" : "VEC3"
        },
        {
            "bufferView" : 1,
            "componentType" : 5126,
            "count" : 32388,
            "type" : "VEC3"
        },
        {
            "bufferView" : 2,
            "componentType" : 5123,
            "count" : 32388,
            "type" : "SCALAR"
        }
    ],
    "bufferViews" : [
        {
            "buffer" : 0,
            "byteLength" : 388656,
            "byteOffset" : 0
        },
        {
            "buffer" : 0,
            "byteLength" : 388656,
            "byteOffset" : 388656
        },
        {
            "buffer" : 0,
            "byteLength" : 64776,
            "byteOffset" : 777312
        }
    ],
    "buffers" : [
        {
            "byteLength" : 842088,
            "uri" : "data:application/octet-stream;base64,"
        }
    ]
}
