{
    "asset" : {
        "generator" : "Khronos glTF Blender I/O v0.9.36",
        "version" : "2.0"
    },
    "scene" : 0,
    "scenes" : [
        {
            "name" : "Scene",
            "nodes" : [
                1
            ]
        }
    ],
    "nodes" : [
        {
            "mesh" : 0,
            "name" : "Spa-Francorchamps",
            "rotation" : [
                0.20799455046653748,
                0,
                0,
                0.978130042552948
            ],
            "scale" : [
                1,
                0.023689694702625275,
                0.9946349859237671
            ]
        },
        {
            "children" : [
                0
            ],
            "name" : "__root__",
            "rotation" : [
                -0.07410839200019836,
                0,
                0,
                0.9972501993179321
            ],
            "scale" : [
                1,
                0.10000001639127731,
                1
            ]
        }
    ],
    "materials" : [
        {
            "emissiveFactor" : [
                0,
                0,
                0
            ],
            "name" : "material0",
            "pbrMetallicRoughness" : {
                "baseColorFactor" : [
                    1,
                    1,
                    1,
                    1
                ],
                "metallicFactor" : 0.5,
                "roughnessFactor" : 0.5
            }
        }
    ],
    "meshes" : [
        {
            "name" : "Mesh_0",
            "primitives" : [
                {
                    "attributes" : {
                        "POSITION" : 0,
                        "NORMAL" : 1
                    },
                    "indices" : 2,
                    "material" : 0
                }
            ]
        }
    ],
    "accessors" : [
        {
            "bufferView" : 0,
            "componentType" : 5126,
            "count" : 33180,
            "max" : [
                381.4447021484375,
                0,
                -0.32303598523139954
            ],
            "min" : [
                0.3231920003890991,
                -9,
                -273.91339111328125
            ],
            "type" : "VEC3"
        },
        {
            "bufferView" : 1,
            "componentType" : 5126,
            "count" : 33180,
            "type" : "VEC3"
        },
        {
            "bufferView" : 2,
            "componentType" : 5123,
            "count" : 33180,
            "type" : "SCALAR"
        }
    ],
    "bufferViews" : [
        {
            "buffer" : 0,
            "byteLength" : 398160,
            "byteOffset" : 0
        },
        {
            "buffer" : 0,
            "byteLength" : 398160,
            "byteOffset" : 398160
        },
        {
            "buffer" : 0,
            "byteLength" : 66360,
            "byteOffset" : 796320
        }
    ],
    "buffers" : [
        {
            "byteLength" : 862680,
            "uri" : "data:application/octet-stream;base64,"
        }
    ]
}
