{
    "asset" : {
        "generator" : "Khronos glTF Blender I/O v0.9.36",
        "version" : "2.0"
    },
    "scene" : 0,
    "scenes" : [
        {
            "name" : "Scene",
            "nodes" : [
                1
            ]
        }
    ],
    "nodes" : [
        {
            "mesh" : 0,
            "name" : "Suzuka",
            "rotation" : [
                0.29187634587287903,
                0,
                0,
                0.9564560651779175
            ],
            "scale" : [
                1,
                0.03400081396102905,
                1
            ]
        },
        {
            "children" : [
                0
            ],
            "name" : "__root__",
            "rotation" : [
                -0.07410839200019836,
                0,
                0,
                0.9972501993179321
            ],
            "scale" : [
                1,
                0.10000001639127731,
                1
            ]
        }
    ],
    "materials" : [
        {
            "emissiveFactor" : [
                0,
                0,
                0
            ],
            "name" : "material0",
            "pbrMetallicRoughness" : {
                "baseColorFactor" : [
                    1,
                    1,
                    1,
                    1
                ],
                "metallicFactor" : 0.5,
                "roughnessFactor" : 0.5
            }
        }
    ],
    "meshes" : [
        {
            "name" : "Mesh_0",
            "primitives" : [
                {
                    "attributes" : {
                        "POSITION" : 0,
                        "NORMAL" : 1
                    },
                    "indices" : 2,
                    "material" : 0
                }
            ]
        }
    ],
    "accessors" : [
        {
            "bufferView" : 0,
            "componentType" : 5126,
            "count" : 33681,
            "max" : [
                350.5939025878906,
                0,
                -11.278149604797363
            ],
            "min" : [
                -3.1317219734191895,
                -6,
                -256.1697998046875
            ],
            "type" : "VEC3"
        },
        {
            "bufferView" : 1,
            "componentType" : 5126,
            "count" : 33681,
            "type" : "VEC3"
        },
        {
            "bufferView" : 2,
            "componentType" : 5123,
            "count" : 33681,
            "type" : "SCALAR"
        }
    ],
    "bufferViews" : [
        {
            "buffer" : 0,
            "byteLength" : 404172,
            "byteOffset" : 0
        },
        {
            "buffer" : 0,
            "byteLength" : 404172,
            "byteOffset" : 404172
        },
        {
            "buffer" : 0,
            "byteLength" : 67362,
            "byteOffset" : 808344
        }
    ],
    "buffers" : [
        {
            "byteLength" : 875708,
            "uri" : "data:application/octet-stream;base64,"
        }
    ]
}
