{
    "asset" : {
        "generator" : "Khronos glTF Blender I/O v0.9.36",
        "version" : "2.0"
    },
    "scene" : 0,
    "scenes" : [
        {
            "name" : "Scene",
            "nodes" : [
                1
            ]
        }
    ],
    "nodes" : [
        {
            "mesh" : 0,
            "name" : "Zandvoort",
            "rotation" : [
                0.2862735986709595,
                0,
                0,
                0.9581478834152222
            ],
            "scale" : [
                1,
                0.017730355262756348,
                1
            ]
        },
        {
            "children" : [
                0
            ],
            "name" : "__root__",
            "rotation" : [
                -0.09758291393518448,
                0,
                0,
                0.9952273964881897
            ],
            "scale" : [
                1,
                0.10000002384185791,
                1
            ]
        }
    ],
    "materials" : [
        {
            "emissiveFactor" : [
                0,
                0,
                0
            ],
            "name" : "material0",
            "pbrMetallicRoughness" : {
                "baseColorFactor" : [
                    1,
                    1,
                    1,
                    1
                ],
                "metallicFactor" : 0.5,
                "roughnessFactor" : 0.5
            }
        }
    ],
    "meshes" : [
        {
            "name" : "Mesh_0",
            "primitives" : [
                {
                    "attributes" : {
                        "POSITION" : 0,
                        "NORMAL" : 1
                    },
                    "indices" : 2,
                    "material" : 0
                }
            ]
        }
    ],
    "accessors" : [
        {
            "bufferView" : 0,
            "componentType" : 5126,
            "count" : 33576,
            "max" : [
                308.544189453125,
                0,
                -4.970674991607666
            ],
            "min" : [
                -5.403700828552246,
                -5,
                -272.158203125
            ],
            "type" : "VEC3"
        },
        {
            "bufferView" : 1,
            "componentType" : 5126,
            "count" : 33576,
            "type" : "VEC3"
        },
        {
            "bufferView" : 2,
            "componentType" : 5123,
            "count" : 33576,
            "type" : "SCALAR"
        }
    ],
    "bufferViews" : [
        {
            "buffer" : 0,
            "byteLength" : 402912,
            "byteOffset" : 0
        },
        {
            "buffer" : 0,
            "byteLength" : 402912,
            "byteOffset" : 402912
        },
        {
            "buffer" : 0,
            "byteLength" : 67152,
            "byteOffset" : 805824
        }
    ],
    "buffers" : [
        {
            "byteLength" : 872976,
            "uri" : "data:application/octet-stream;base64,"
        }
    ]
}
